<svg id="Layer_1" data-name="Layer 1" xmlns="http://www.w3.org/2000/svg" viewBox="0 0 500 500"><defs><style>.cls-1{fill:#db2868;}.cls-2{fill:#f0457d;}.cls-3{fill:#fff;}</style></defs><title>Language Learning</title><rect class="cls-1" x="36.51" y="87.82" width="427.57" height="324.36" rx="16.29"/><rect class="cls-2" x="36.21" y="87.82" width="393.39" height="324.36" rx="16.29"/><path class="cls-3" d="M177.42,188.15v123.7a9.92,9.92,0,0,0,14.6,8.74l115.45-61.85a9.91,9.91,0,0,0,0-17.48L192,179.41A9.92,9.92,0,0,0,177.42,188.15Z"/><path class="cls-3" d="M82.21,128.68h-6a4,4,0,1,1,0-8h6a4,4,0,0,1,0,8Z"/><path class="cls-3" d="M388.4,128.68H375.9a4,4,0,0,1,0-8h12.5a4,4,0,0,1,0,8Zm-43.74,0h-12.5a4,4,0,0,1,0-8h12.5a4,4,0,0,1,0,8Zm-43.74,0h-12.5a4,4,0,0,1,0-8h12.5a4,4,0,0,1,0,8Zm-43.75,0H244.68a4,4,0,0,1,0-8h12.49a4,4,0,0,1,0,8Zm-43.74,0h-12.5a4,4,0,0,1,0-8h12.5a4,4,0,0,1,0,8Zm-43.74,0h-12.5a4,4,0,0,1,0-8h12.5a4,4,0,0,1,0,8Zm-43.74,0h-12.5a4,4,0,1,1,0-8H126a4,4,0,0,1,0,8Z"/><path class="cls-3" d="M425.64,128.68h-6a4,4,0,0,1,0-8h6a4,4,0,0,1,0,8Z"/><path class="cls-3" d="M81.28,379.62h-6a4,4,0,1,1,0-8h6a4,4,0,0,1,0,8Z"/><path class="cls-3" d="M387.47,379.62H375a4,4,0,0,1,0-8h12.49a4,4,0,0,1,0,8Zm-43.74,0h-12.5a4,4,0,0,1,0-8h12.5a4,4,0,0,1,0,8Zm-43.74,0h-12.5a4,4,0,0,1,0-8H300a4,4,0,0,1,0,8Zm-43.74,0h-12.5a4,4,0,0,1,0-8h12.5a4,4,0,0,1,0,8Zm-43.74,0H200a4,4,0,0,1,0-8h12.5a4,4,0,0,1,0,8Zm-43.74,0h-12.5a4,4,0,1,1,0-8h12.5a4,4,0,0,1,0,8Zm-43.75,0H112.53a4,4,0,1,1,0-8H125a4,4,0,1,1,0,8Z"/><path class="cls-3" d="M424.72,379.62h-6a4,4,0,0,1,0-8h6a4,4,0,0,1,0,8Z"/></svg>